<?xml version="1.0" encoding="UTF-8" standalone="no"?>
<!-- Created with Inkscape (http://www.inkscape.org/) -->

<svg
   width="1920mm"
   height="1080mm"
   viewBox="0 0 1920 1080"
   version="1.1"
   id="svg1"
   xml:space="preserve"
   inkscape:version="1.4.1 (93de688d07, 2025-03-30)"
   sodipodi:docname="default.svg"
   xmlns:inkscape="http://www.inkscape.org/namespaces/inkscape"
   xmlns:sodipodi="http://sodipodi.sourceforge.net/DTD/sodipodi-0.dtd"
   xmlns="http://www.w3.org/2000/svg"
   xmlns:svg="http://www.w3.org/2000/svg"><sodipodi:namedview
     id="namedview1"
     pagecolor="#ffffff"
     bordercolor="#000000"
     borderopacity="0.25"
     inkscape:showpageshadow="2"
     inkscape:pageopacity="0.0"
     inkscape:pagecheckerboard="0"
     inkscape:deskcolor="#d1d1d1"
     inkscape:document-units="mm"
     inkscape:zoom="0.073834176"
     inkscape:cx="3636.5273"
     inkscape:cy="2702.0008"
     inkscape:window-width="1476"
     inkscape:window-height="830"
     inkscape:window-x="0"
     inkscape:window-y="0"
     inkscape:window-maximized="0"
     inkscape:current-layer="layer1" /><defs
     id="defs1" /><g
     inkscape:label="Layer 1"
     inkscape:groupmode="layer"
     id="layer1"><path
       style="fill:#597445;fill-opacity:1;stroke-width:0.588063"
       d="m 899.6308,799.6956 c -32.7752,-18.7967 -80.4085,-46.0834 -105.8522,-60.637 -76.3294,-43.66 -86.1722,-49.4154 -88.0143,-51.4654 L 704,685.6298 V 539.2447 c 0,-114.62957 0.2222,-146.78948 0.9801,-148.24872 1.0748,-2.06727 1.2343,-2.16217 51.5424,-30.65695 19.6219,-11.11386 55.259,-31.31199 79.1934,-44.88475 48.8196,-27.68462 117.446,-66.33604 121.355,-68.34889 3.8059,-1.95957 -3.1532,-5.56468 77.0198,39.89895 25.2282,14.30604 66.687,37.7728 92.1307,52.14833 57.9773,32.75679 86.6405,49.22025 88.4066,50.77862 1.2974,1.14525 1.372,9.21307 1.372,148.58881 v 147.3778 l -2.1562,1.9453 c -2.6614,2.4011 -57.2282,34.0127 -133.0999,77.1075 -17.6812,10.0429 -52.1653,29.6672 -76.6315,43.6097 -24.4667,13.9425 -44.5783,25.3412 -44.6933,25.3305 -0.1156,-0.01 -27.025,-15.3986 -59.7998,-34.1953 z m 11.0357,-57.8916 c 9.8055,-4.8052 16.7984,-14.3067 20.5031,-27.8594 1.2773,-4.6736 1.3929,-10.0108 1.3929,-64.2955 0,-58.0091 -0.044,-59.394 -1.7657,-68.9115 -2.1576,-11.8671 -5.321,-21.3912 -10.7078,-32.2362 -10.8967,-21.9382 -24.2543,-36.0638 -48.889,-51.6994 -10.2075,-6.4788 -50.5937,-29.6574 -70.7568,-40.6088 -7.978,-4.3334 -22.4447,-12.189 -32.1475,-17.457 -9.7032,-5.26806 -19.4944,-10.62628 -21.7586,-11.90721 l -4.1165,-2.32893 V 544.3274 664.1548 l 8.4156,4.8189 c 36.8887,21.1231 83.9008,48.2644 96.2335,55.5583 31.5125,18.6365 37.8386,21.1459 51.3579,20.3719 5.5526,-0.3177 7.5906,-0.8352 12.2123,-3.0999 z M 862.3863,687.44 c -2.8556,-1.158 -45.0799,-25.4207 -66.4515,-38.1839 l -4.9007,-2.9266 v -76.2872 -76.2872 l 23.327,13.5439 c 50.0073,29.0353 51.5303,30.0583 59.4359,39.9219 8.1468,10.1649 13.0809,23.3233 14.4458,38.5248 0.8842,9.8487 0.9161,47.6459 0.058,67.8239 -0.6975,16.3817 -1.7501,21.2838 -5.9266,27.5948 -4.1085,6.2086 -13.1515,9.0478 -19.9872,6.2756 z m 182.3478,50.3839 c 10.0494,-2.9123 9.5491,-2.645 74.8338,-39.961 14.4471,-8.2576 33.9416,-19.3482 43.3214,-24.6458 l 17.0538,-9.6321 v -68.5191 c 0,-37.6854 -0.2799,-68.519 -0.6269,-68.519 -0.3466,0 -0.9628,0.3181 -1.3725,0.7067 -0.4087,0.3888 -7.8016,4.657 -16.4265,9.4849 -27.3187,15.292 -30.1307,16.8773 -52.1421,29.398 -11.8595,6.7458 -21.8337,12.5305 -22.1656,12.8548 -0.3333,0.3244 -0.5079,8.7429 -0.391,18.708 l 0.2088,18.1183 18.7724,-10.965 c 10.3249,-6.0308 20.998,-12.2099 23.7185,-13.7313 l 4.9465,-2.7662 v 23.9099 23.91 l -25.2122,14.3819 c -13.8669,7.9101 -27.3627,15.2125 -29.9913,16.2275 -14.5008,5.5999 -29.5748,2.7058 -38.868,-7.4624 -8.6373,-9.4505 -11.8461,-20.0202 -11.8203,-38.9344 0.049,-36.3037 13.9459,-62.2202 42.0639,-78.4496 46.6794,-26.9425 60.5356,-34.8772 83.038,-47.5515 l 25.8751,-14.5737 0.2044,-31.1273 c 0.1111,-17.11993 -0.044,-31.12717 -0.3288,-31.12717 -0.7269,0 -23.3026,12.40427 -61.8192,33.96707 -64.014,35.8368 -66.8554,37.5417 -79.9771,47.9862 -8.2846,6.5943 -16.5167,15.107 -21.8315,22.576 -9.4069,13.2201 -19.3869,38.6214 -23.9931,61.068 -3.9818,19.4035 -4.3582,25.2379 -4.3413,67.2776 v 39.5966 l 2.1309,7.7849 c 1.1717,4.2818 3.7704,11.1621 5.7747,15.2898 3.0075,6.1934 4.7558,8.6166 10.0067,13.8677 12.3037,12.304 23.5883,15.4167 39.3412,10.8517 z M 965.8677,531.3775 c 13.8971,-35.1343 33.6395,-57.4205 70.1949,-79.238 18.672,-11.14412 102.2347,-57.87252 105.7629,-59.14284 0.4803,-0.17284 0.6971,-0.47999 0.4817,-0.68215 -0.5039,-0.47212 -18.0865,-10.47775 -45.8699,-26.10284 -12.075,-6.79089 -31.1282,-17.5685 -42.3407,-23.95027 -11.2126,-6.38181 -36.9322,-20.97962 -57.1553,-32.4396 l -36.7691,-20.83634 -45.1683,25.77131 c -24.8426,14.17425 -65.4568,37.31743 -90.254,51.42926 -55.7881,31.74897 -51.7498,29.4236 -51.7498,29.80019 0,0.17417 3.793,2.34026 8.4289,4.81399 22.0115,11.74531 95.3004,52.41339 106.8324,59.28129 37.129,22.1125 55.5052,41.3437 69.567,72.8037 2.0599,4.609 3.8811,8.2556 4.0464,8.1035 0.1643,-0.1519 1.9625,-4.4771 3.9929,-9.6112 z"
       id="path1" /></g></svg>
